<svg width="88" height="88" fill="none" xmlns="http://www.w3.org/2000/svg"><path opacity=".4" d="M12.188 56.039s.49 6.014.605 7.91c.152 2.544 1.135 5.385 2.775 7.357 2.315 2.796 5.042 3.782 8.682 3.789 4.28.007 35.407.007 39.687 0 3.64-.007 6.367-.993 8.682-3.79 1.64-1.972 2.623-4.812 2.779-7.356.11-1.896.602-7.91.602-7.91" stroke="#fff" stroke-width="5" stroke-linecap="round" stroke-linejoin="round"/><path d="M31.884 20.924V19.64a7.638 7.638 0 017.64-7.64h8.935a7.64 7.64 0 017.64 7.64l.004 1.284M43.992 60.195v-4.478" stroke="#fff" stroke-width="5" stroke-linecap="round" stroke-linejoin="round"/><path clip-rule="evenodd" d="M12 31.511v11.997c6.637 4.378 14.589 7.444 23.316 8.658 1.045-3.81 4.481-6.602 8.658-6.602 4.11 0 7.616 2.792 8.592 6.637 8.761-1.215 16.744-4.28 23.416-8.693V31.511A10.556 10.556 0 0065.404 20.93H22.613C16.75 20.93 12 25.65 12 31.511z" stroke="#fff" stroke-width="5" stroke-linecap="round" stroke-linejoin="round"/></svg>