<svg width="44" height="44" fill="none" xmlns="http://www.w3.org/2000/svg"><path d="M15.697 22.628v7.49m3.821-3.745h-7.642m16.856-3.517h-.214m3.842 7.149h-.215" stroke="#fff" stroke-width="4" stroke-linecap="round" stroke-linejoin="round"/><path opacity=".4" d="M14.144 2c0 1.481 1.225 2.682 2.736 2.682h2.113c2.332.008 4.22 1.859 4.23 4.143v1.35" stroke="#fff" stroke-width="4" stroke-linecap="round" stroke-linejoin="round"/><path clip-rule="evenodd" d="M30.857 41.925c-6.01.102-11.91.098-17.712 0C6.707 41.925 2 37.333 2 31.023v-9.3c0-6.31 4.707-10.902 11.146-10.902 5.832-.1 11.736-.098 17.71 0C37.297 10.82 42 15.415 42 21.723v9.3c0 6.31-4.705 10.902-11.143 10.902z" stroke="#fff" stroke-width="4" stroke-linecap="round" stroke-linejoin="round"/></svg>