<svg width="44" height="44" fill="none" xmlns="http://www.w3.org/2000/svg"><path clip-rule="evenodd" d="M3.032 6.995c.666-1.103 4.335-5.113 6.954-4.992.782.065 1.474.538 2.037 1.087 1.29 1.26 4.985 6.028 5.195 7.031.51 2.46-2.421 3.879-1.524 6.359 2.287 5.597 6.229 9.538 11.829 11.824 2.478.897 3.896-2.035 6.357-1.522 1 .21 5.77 3.904 7.03 5.195.548.56 1.024 1.254 1.088 2.037.098 2.756-4.162 6.477-4.992 6.953-1.959 1.4-4.515 1.377-7.63-.072-8.694-3.617-22.588-17.248-26.272-26.27-1.41-3.099-1.507-5.671-.072-7.63z" stroke="#fff" stroke-width="4" stroke-linecap="round" stroke-linejoin="round"/><path opacity=".4" d="M5.964 4.725l3.093 4.587m25.289 25.46l4.606 3.6" stroke="#fff" stroke-width="4" stroke-linecap="round" stroke-linejoin="round"/></svg>