<svg width="44" height="35" fill="none" xmlns="http://www.w3.org/2000/svg"><path opacity=".4" d="M33.024 15.153a5.66 5.66 0 005.66-5.658 5.66 5.66 0 00-5.66-5.658" stroke="#fff" stroke-width="4" stroke-linecap="round" stroke-linejoin="round"/><path d="M35.626 21.302c.933.065 1.86.197 2.774.403 1.27.248 2.796.768 3.34 1.907.347.73.347 1.579 0 2.31-.542 1.139-2.07 1.657-3.34 1.918" stroke="#fff" stroke-width="4" stroke-linecap="round" stroke-linejoin="round"/><path opacity=".4" d="M10.976 15.153a5.66 5.66 0 01-5.66-5.658 5.66 5.66 0 015.66-5.658" stroke="#fff" stroke-width="4" stroke-linecap="round" stroke-linejoin="round"/><path d="M8.374 21.302a18.45 18.45 0 00-2.775.403c-1.27.248-2.796.768-3.338 1.907a2.681 2.681 0 000 2.31c.54 1.139 2.069 1.657 3.338 1.918" stroke="#fff" stroke-width="4" stroke-linecap="round" stroke-linejoin="round"/><path clip-rule="evenodd" d="M21.99 22.52c6.333 0 11.743.96 11.743 4.794 0 3.833-5.374 4.827-11.742 4.827-6.334 0-11.742-.958-11.742-4.793s5.374-4.827 11.742-4.827z" stroke="#fff" stroke-width="4" stroke-linecap="round" stroke-linejoin="round"/><path opacity=".4" clip-rule="evenodd" d="M21.99 17.051a7.5 7.5 0 01-7.524-7.526A7.499 7.499 0 0121.99 2a7.499 7.499 0 017.524 7.525 7.5 7.5 0 01-7.524 7.526z" stroke="#fff" stroke-width="4" stroke-linecap="round" stroke-linejoin="round"/></svg>